<mxfile host="65bd71144e">
    <diagram id="ocjSQw8wRD2fOL_AwGfq" name="Страница 1">
        <mxGraphModel dx="972" dy="807" grid="1" gridSize="10" guides="1" tooltips="1" connect="1" arrows="1" fold="1" page="0" pageScale="1" pageWidth="827" pageHeight="1169" math="0" shadow="0">
            <root>
                <mxCell id="0"/>
                <mxCell id="1" parent="0"/>
                <mxCell id="VIp4UG6BL_EoKdXGue2n-1" value="Опциональные компоненты" style="rounded=1;whiteSpace=wrap;html=1;arcSize=3;verticalAlign=top;dashed=1;align=center;fontStyle=1;" parent="1" vertex="1">
                    <mxGeometry x="130" y="-80" width="200" height="340" as="geometry"/>
                </mxCell>
                <mxCell id="VIp4UG6BL_EoKdXGue2n-4" value="Кластер DataGrid" style="rounded=1;whiteSpace=wrap;html=1;arcSize=3;verticalAlign=top;dashed=1;align=center;fontStyle=1;" parent="1" vertex="1">
                    <mxGeometry x="-160" y="-80" width="220" height="340" as="geometry"/>
                </mxCell>
                <mxCell id="VIp4UG6BL_EoKdXGue2n-5" value="" style="rounded=1;whiteSpace=wrap;html=1;arcSize=5;verticalAlign=top;fillColor=default;strokeColor=#6c8ebf;strokeWidth=2;" parent="1" vertex="1">
                    <mxGeometry x="-125" y="-47" width="160" height="277" as="geometry"/>
                </mxCell>
                <mxCell id="VIp4UG6BL_EoKdXGue2n-6" value="" style="rounded=1;whiteSpace=wrap;html=1;arcSize=5;verticalAlign=top;fillColor=default;strokeColor=#6c8ebf;strokeWidth=2;" parent="1" vertex="1">
                    <mxGeometry x="-134" y="-38" width="160" height="277" as="geometry"/>
                </mxCell>
                <mxCell id="VIp4UG6BL_EoKdXGue2n-8" value="Внешние взаимодействия" style="rounded=1;whiteSpace=wrap;html=1;arcSize=3;verticalAlign=top;dashed=1;fontStyle=1;" parent="1" vertex="1">
                    <mxGeometry x="-450" y="-80" width="220" height="360" as="geometry"/>
                </mxCell>
                <mxCell id="VIp4UG6BL_EoKdXGue2n-9" value="Linux-сервер + JVM" style="rounded=1;whiteSpace=wrap;html=1;arcSize=5;verticalAlign=top;fillColor=default;strokeColor=#6c8ebf;strokeWidth=2;" parent="1" vertex="1">
                    <mxGeometry x="-144" y="-27" width="160" height="277" as="geometry"/>
                </mxCell>
                <mxCell id="VIp4UG6BL_EoKdXGue2n-10" value="" style="edgeStyle=orthogonalEdgeStyle;rounded=0;orthogonalLoop=1;jettySize=auto;html=1;exitX=-0.002;exitY=0.184;exitDx=0;exitDy=0;entryX=1;entryY=0.5;entryDx=0;entryDy=0;exitPerimeter=0;fillColor=#e51400;strokeColor=#B20000;" parent="1" source="VIp4UG6BL_EoKdXGue2n-16" target="VIp4UG6BL_EoKdXGue2n-22" edge="1">
                    <mxGeometry relative="1" as="geometry">
                        <Array as="points">
                            <mxPoint x="-202" y="29"/>
                        </Array>
                    </mxGeometry>
                </mxCell>
                <mxCell id="VIp4UG6BL_EoKdXGue2n-11" value="HTTP(S) + REST" style="edgeLabel;html=1;align=center;verticalAlign=middle;resizable=0;points=[];fontSize=10;" parent="VIp4UG6BL_EoKdXGue2n-10" vertex="1" connectable="0">
                    <mxGeometry x="0.6193" y="-2" relative="1" as="geometry">
                        <mxPoint x="33" y="-6" as="offset"/>
                    </mxGeometry>
                </mxCell>
                <mxCell id="VIp4UG6BL_EoKdXGue2n-12" value="" style="edgeStyle=orthogonalEdgeStyle;rounded=0;orthogonalLoop=1;jettySize=auto;html=1;exitX=0;exitY=0.5;exitDx=0;exitDy=0;strokeColor=default;fillColor=#e51400;startArrow=classic;startFill=1;endArrow=none;endFill=0;" parent="1" source="VIp4UG6BL_EoKdXGue2n-65" target="VIp4UG6BL_EoKdXGue2n-29" edge="1">
                    <mxGeometry relative="1" as="geometry">
                        <mxPoint x="-133" y="70" as="sourcePoint"/>
                        <mxPoint x="-250" y="170" as="targetPoint"/>
                        <Array as="points"/>
                    </mxGeometry>
                </mxCell>
                <mxCell id="VIp4UG6BL_EoKdXGue2n-13" value="syslog" style="edgeLabel;html=1;align=center;verticalAlign=middle;resizable=0;points=[];fontSize=10;" parent="VIp4UG6BL_EoKdXGue2n-12" vertex="1" connectable="0">
                    <mxGeometry x="0.2935" y="2" relative="1" as="geometry">
                        <mxPoint x="80" y="-14" as="offset"/>
                    </mxGeometry>
                </mxCell>
                <mxCell id="VIp4UG6BL_EoKdXGue2n-14" value="" style="edgeStyle=orthogonalEdgeStyle;rounded=0;orthogonalLoop=1;jettySize=auto;html=1;strokeColor=#B20000;fillColor=#e51400;" parent="1" source="VIp4UG6BL_EoKdXGue2n-16" target="VIp4UG6BL_EoKdXGue2n-30" edge="1">
                    <mxGeometry relative="1" as="geometry"/>
                </mxCell>
                <mxCell id="VIp4UG6BL_EoKdXGue2n-15" value="&lt;span style=&quot;color: rgb(0, 0, 0);&quot;&gt;HTTP(S) + REST&lt;/span&gt;" style="edgeLabel;html=1;align=center;verticalAlign=middle;resizable=0;points=[];fontSize=10;" parent="VIp4UG6BL_EoKdXGue2n-14" vertex="1" connectable="0">
                    <mxGeometry x="0.3944" relative="1" as="geometry">
                        <mxPoint x="19" y="-12" as="offset"/>
                    </mxGeometry>
                </mxCell>
                <mxCell id="VIp4UG6BL_EoKdXGue2n-16" value="Серверный узел DataGrid" style="rounded=1;whiteSpace=wrap;html=1;arcSize=5;verticalAlign=top;fillColor=#dae8fc;strokeColor=#6c8ebf;fontStyle=1" parent="1" vertex="1">
                    <mxGeometry x="-134" width="140" height="160" as="geometry"/>
                </mxCell>
                <mxCell id="VIp4UG6BL_EoKdXGue2n-17" value="" style="edgeStyle=orthogonalEdgeStyle;rounded=0;orthogonalLoop=1;jettySize=auto;html=1;entryX=0.155;entryY=1;entryDx=0;entryDy=0;entryPerimeter=0;exitX=0.313;exitY=-0.018;exitDx=0;exitDy=0;exitPerimeter=0;" parent="1" source="VIp4UG6BL_EoKdXGue2n-21" target="VIp4UG6BL_EoKdXGue2n-16" edge="1">
                    <mxGeometry relative="1" as="geometry">
                        <mxPoint x="-112" y="204" as="sourcePoint"/>
                    </mxGeometry>
                </mxCell>
                <mxCell id="VIp4UG6BL_EoKdXGue2n-18" value="JMX" style="edgeLabel;html=1;align=center;verticalAlign=middle;resizable=0;points=[];" parent="VIp4UG6BL_EoKdXGue2n-17" vertex="1" connectable="0">
                    <mxGeometry x="-0.1389" relative="1" as="geometry">
                        <mxPoint x="-13" y="9" as="offset"/>
                    </mxGeometry>
                </mxCell>
                <mxCell id="VIp4UG6BL_EoKdXGue2n-19" value="" style="edgeStyle=orthogonalEdgeStyle;rounded=0;orthogonalLoop=1;jettySize=auto;html=1;entryX=1;entryY=0.5;entryDx=0;entryDy=0;" parent="1" source="VIp4UG6BL_EoKdXGue2n-21" target="VIp4UG6BL_EoKdXGue2n-23" edge="1">
                    <mxGeometry relative="1" as="geometry"/>
                </mxCell>
                <mxCell id="VIp4UG6BL_EoKdXGue2n-20" value="TCP" style="edgeLabel;html=1;align=center;verticalAlign=middle;resizable=0;points=[];fontSize=10;" parent="VIp4UG6BL_EoKdXGue2n-19" vertex="1" connectable="0">
                    <mxGeometry x="0.348" y="1" relative="1" as="geometry">
                        <mxPoint x="13" y="-11" as="offset"/>
                    </mxGeometry>
                </mxCell>
                <mxCell id="VIp4UG6BL_EoKdXGue2n-21" value="&lt;font style=&quot;font-size: 10px;&quot;&gt;Zabbix-agent&lt;/font&gt;" style="rounded=1;whiteSpace=wrap;html=1;arcSize=5;verticalAlign=top;fillColor=none;strokeColor=#6c8ebf;" parent="1" vertex="1">
                    <mxGeometry x="-134" y="205" width="70" height="30" as="geometry"/>
                </mxCell>
                <mxCell id="VIp4UG6BL_EoKdXGue2n-22" value="Система хранения секретов&lt;br&gt;(SecMan)" style="rounded=1;whiteSpace=wrap;html=1;fillColor=#f5f5f5;fontColor=#333333;strokeColor=#666666;" parent="1" vertex="1">
                    <mxGeometry x="-430" y="10" width="180" height="40" as="geometry"/>
                </mxCell>
                <mxCell id="VIp4UG6BL_EoKdXGue2n-23" value="Система мониторинга&lt;br&gt;(Zabbix + Grafana)" style="rounded=1;whiteSpace=wrap;html=1;fillColor=#f5f5f5;fontColor=#333333;strokeColor=#666666;" parent="1" vertex="1">
                    <mxGeometry x="-430" y="200" width="180" height="40" as="geometry"/>
                </mxCell>
                <mxCell id="VIp4UG6BL_EoKdXGue2n-24" value="Linux-сервер + JVM" style="rounded=1;whiteSpace=wrap;html=1;arcSize=5;verticalAlign=top;strokeColor=#6c8ebf;strokeWidth=2;" parent="1" vertex="1">
                    <mxGeometry x="160" y="-40" width="140" height="90" as="geometry"/>
                </mxCell>
                <mxCell id="VIp4UG6BL_EoKdXGue2n-25" value="&lt;font style=&quot;font-size: 11px;&quot;&gt;Platform V Grid Center&lt;/font&gt;" style="rounded=1;whiteSpace=wrap;html=1;verticalAlign=top;fillColor=default;strokeColor=#6c8ebf;" parent="1" vertex="1">
                    <mxGeometry x="170" y="-10" width="120" height="50" as="geometry"/>
                </mxCell>
                <mxCell id="VIp4UG6BL_EoKdXGue2n-26" value="" style="edgeStyle=orthogonalEdgeStyle;rounded=0;orthogonalLoop=1;jettySize=auto;html=1;entryX=0.999;entryY=0.187;entryDx=0;entryDy=0;entryPerimeter=0;dashed=1;dashPattern=1 1;" parent="1" source="VIp4UG6BL_EoKdXGue2n-28" target="VIp4UG6BL_EoKdXGue2n-16" edge="1">
                    <mxGeometry relative="1" as="geometry">
                        <Array as="points"/>
                    </mxGeometry>
                </mxCell>
                <mxCell id="VIp4UG6BL_EoKdXGue2n-27" value="TLS + TCP" style="edgeLabel;html=1;align=center;verticalAlign=middle;resizable=0;points=[];fontSize=10;" parent="VIp4UG6BL_EoKdXGue2n-26" vertex="1" connectable="0">
                    <mxGeometry x="-0.1457" y="-2" relative="1" as="geometry">
                        <mxPoint x="-6" y="-8" as="offset"/>
                    </mxGeometry>
                </mxCell>
                <mxCell id="VIp4UG6BL_EoKdXGue2n-28" value="Тонкий клиент" style="rounded=1;whiteSpace=wrap;html=1;fontSize=10;fillColor=#dae8fc;strokeColor=#6c8ebf;" parent="1" vertex="1">
                    <mxGeometry x="170" y="20" width="90" height="20" as="geometry"/>
                </mxCell>
                <mxCell id="VIp4UG6BL_EoKdXGue2n-29" value="Система аудита (ПКБ)" style="rounded=1;whiteSpace=wrap;html=1;fillColor=#f5f5f5;fontColor=#333333;strokeColor=#666666;" parent="1" vertex="1">
                    <mxGeometry x="-430" y="110" width="180" height="40" as="geometry"/>
                </mxCell>
                <mxCell id="VIp4UG6BL_EoKdXGue2n-30" value="Система управления конфигурациями" style="rounded=1;whiteSpace=wrap;html=1;fillColor=#f5f5f5;fontColor=#333333;strokeColor=#666666;" parent="1" vertex="1">
                    <mxGeometry x="-430" y="60" width="180" height="40" as="geometry"/>
                </mxCell>
                <mxCell id="VIp4UG6BL_EoKdXGue2n-31" value="Linux-сервер + JVM" style="rounded=1;whiteSpace=wrap;html=1;arcSize=5;verticalAlign=top;strokeColor=#6c8ebf;strokeWidth=2;" parent="1" vertex="1">
                    <mxGeometry x="160" y="170" width="140" height="50" as="geometry"/>
                </mxCell>
                <mxCell id="VIp4UG6BL_EoKdXGue2n-32" value="Platform V Corax" style="shape=cylinder3;whiteSpace=wrap;html=1;boundedLbl=1;backgroundOutline=1;size=4.399993896484375;rotation=90;horizontal=0;fillColor=none;strokeColor=#6c8ebf;" parent="1" vertex="1">
                    <mxGeometry x="225" y="140" width="15" height="120" as="geometry"/>
                </mxCell>
                <mxCell id="VIp4UG6BL_EoKdXGue2n-33" value="" style="edgeStyle=orthogonalEdgeStyle;rounded=0;orthogonalLoop=1;jettySize=auto;html=1;entryX=0.5;entryY=1;entryDx=0;entryDy=0;entryPerimeter=0;exitX=0.5;exitY=1;exitDx=0;exitDy=0;dashed=1;dashPattern=1 1;" parent="1" source="VIp4UG6BL_EoKdXGue2n-35" target="VIp4UG6BL_EoKdXGue2n-32" edge="1">
                    <mxGeometry relative="1" as="geometry">
                        <Array as="points">
                            <mxPoint x="-27" y="200"/>
                        </Array>
                    </mxGeometry>
                </mxCell>
                <mxCell id="VIp4UG6BL_EoKdXGue2n-34" value="TLS + TCP" style="edgeLabel;html=1;align=center;verticalAlign=middle;resizable=0;points=[];fontSize=10;" parent="VIp4UG6BL_EoKdXGue2n-33" vertex="1" connectable="0">
                    <mxGeometry x="-0.4769" y="2" relative="1" as="geometry">
                        <mxPoint x="94" y="-8" as="offset"/>
                    </mxGeometry>
                </mxCell>
                <mxCell id="VIp4UG6BL_EoKdXGue2n-35" value="CDC-репликация" style="rounded=1;whiteSpace=wrap;html=1;arcSize=5;verticalAlign=top;fontSize=10;fillColor=#dae8fc;strokeColor=#6c8ebf;" parent="1" vertex="1">
                    <mxGeometry x="-60" y="126" width="66" height="34" as="geometry"/>
                </mxCell>
                <mxCell id="VIp4UG6BL_EoKdXGue2n-36" value="Приложение-потребитель" style="rounded=1;whiteSpace=wrap;html=1;verticalAlign=top;fillColor=#f5f5f5;fontColor=#333333;strokeColor=#666666;" parent="1" vertex="1">
                    <mxGeometry x="-430" y="-50" width="180" height="50" as="geometry"/>
                </mxCell>
                <mxCell id="VIp4UG6BL_EoKdXGue2n-37" value="" style="edgeStyle=orthogonalEdgeStyle;rounded=0;orthogonalLoop=1;jettySize=auto;html=1;entryX=-0.001;entryY=0.082;entryDx=0;entryDy=0;entryPerimeter=0;" parent="1" source="VIp4UG6BL_EoKdXGue2n-39" target="VIp4UG6BL_EoKdXGue2n-16" edge="1">
                    <mxGeometry relative="1" as="geometry">
                        <Array as="points">
                            <mxPoint x="-170" y="-10"/>
                            <mxPoint x="-170" y="13"/>
                        </Array>
                    </mxGeometry>
                </mxCell>
                <mxCell id="VIp4UG6BL_EoKdXGue2n-38" value="TLS + TCP" style="edgeLabel;html=1;align=center;verticalAlign=middle;resizable=0;points=[];fontSize=10;" parent="VIp4UG6BL_EoKdXGue2n-37" vertex="1" connectable="0">
                    <mxGeometry x="-0.4653" y="2" relative="1" as="geometry">
                        <mxPoint x="13" y="-8" as="offset"/>
                    </mxGeometry>
                </mxCell>
                <mxCell id="VIp4UG6BL_EoKdXGue2n-39" value="Тонкий или толстый клиент" style="rounded=1;whiteSpace=wrap;html=1;fontSize=10;fillColor=#dae8fc;strokeColor=#6c8ebf;" parent="1" vertex="1">
                    <mxGeometry x="-390" y="-20" width="140" height="20" as="geometry"/>
                </mxCell>
                <mxCell id="VIp4UG6BL_EoKdXGue2n-44" value="Персистентное хранилище" style="rounded=1;whiteSpace=wrap;html=1;arcSize=5;verticalAlign=top;dashed=1;fontStyle=1" parent="1" vertex="1">
                    <mxGeometry x="140" y="60" width="180" height="100" as="geometry"/>
                </mxCell>
                <mxCell id="VIp4UG6BL_EoKdXGue2n-45" value="Linux-сервер" style="rounded=1;whiteSpace=wrap;html=1;arcSize=5;verticalAlign=top;strokeColor=#6c8ebf;strokeWidth=2;" parent="1" vertex="1">
                    <mxGeometry x="160" y="90" width="140" height="58" as="geometry"/>
                </mxCell>
                <mxCell id="VIp4UG6BL_EoKdXGue2n-46" value="FS / DB" style="shape=cylinder3;whiteSpace=wrap;html=1;boundedLbl=1;backgroundOutline=1;size=2.79998779296875;fontSize=10;fillColor=none;strokeColor=#6c8ebf;" parent="1" vertex="1">
                    <mxGeometry x="170" y="113" width="120" height="30" as="geometry"/>
                </mxCell>
                <mxCell id="VIp4UG6BL_EoKdXGue2n-47" value="" style="edgeStyle=orthogonalEdgeStyle;rounded=0;orthogonalLoop=1;jettySize=auto;html=1;entryX=1.003;entryY=0.326;entryDx=0;entryDy=0;entryPerimeter=0;" parent="1" target="VIp4UG6BL_EoKdXGue2n-6" edge="1">
                    <mxGeometry relative="1" as="geometry">
                        <mxPoint x="6" y="65" as="sourcePoint"/>
                        <mxPoint x="170" y="127" as="targetPoint"/>
                        <Array as="points">
                            <mxPoint x="70" y="65"/>
                            <mxPoint x="70" y="52"/>
                        </Array>
                    </mxGeometry>
                </mxCell>
                <mxCell id="VIp4UG6BL_EoKdXGue2n-48" value="TLS + TCP" style="edgeLabel;html=1;align=center;verticalAlign=middle;resizable=0;points=[];fontSize=10;" parent="VIp4UG6BL_EoKdXGue2n-47" vertex="1" connectable="0">
                    <mxGeometry x="-0.4769" y="2" relative="1" as="geometry">
                        <mxPoint x="63" y="-3" as="offset"/>
                    </mxGeometry>
                </mxCell>
                <mxCell id="VIp4UG6BL_EoKdXGue2n-49" value="" style="edgeStyle=orthogonalEdgeStyle;rounded=0;orthogonalLoop=1;jettySize=auto;html=1;exitX=0.994;exitY=0.638;exitDx=0;exitDy=0;entryX=0;entryY=0.5;entryDx=0;entryDy=0;entryPerimeter=0;exitPerimeter=0;fillColor=#0050ef;strokeColor=#001DBC;dashed=1;dashPattern=1 1;" parent="1" source="VIp4UG6BL_EoKdXGue2n-16" target="VIp4UG6BL_EoKdXGue2n-46" edge="1">
                    <mxGeometry relative="1" as="geometry">
                        <mxPoint x="16" y="90" as="sourcePoint"/>
                        <mxPoint x="170" y="127" as="targetPoint"/>
                        <Array as="points">
                            <mxPoint x="50" y="102"/>
                            <mxPoint x="50" y="128"/>
                        </Array>
                    </mxGeometry>
                </mxCell>
                <mxCell id="VIp4UG6BL_EoKdXGue2n-50" value="Native,&lt;br&gt;JDBC, ODBC" style="edgeLabel;html=1;align=center;verticalAlign=middle;resizable=0;points=[];fontSize=10;" parent="VIp4UG6BL_EoKdXGue2n-49" vertex="1" connectable="0">
                    <mxGeometry x="-0.4769" y="2" relative="1" as="geometry">
                        <mxPoint x="41" y="3" as="offset"/>
                    </mxGeometry>
                </mxCell>
                <mxCell id="VIp4UG6BL_EoKdXGue2n-51" value="" style="rounded=1;whiteSpace=wrap;html=1;verticalAlign=top;strokeColor=#6c8ebf;arcSize=42;strokeWidth=2;" parent="1" vertex="1">
                    <mxGeometry x="-450" y="357.5" width="50" height="20" as="geometry"/>
                </mxCell>
                <mxCell id="VIp4UG6BL_EoKdXGue2n-52" value="" style="rounded=1;whiteSpace=wrap;html=1;verticalAlign=top;strokeColor=default;arcSize=42;strokeWidth=1;dashed=1;" parent="1" vertex="1">
                    <mxGeometry x="-450" y="325" width="50" height="20" as="geometry"/>
                </mxCell>
                <mxCell id="VIp4UG6BL_EoKdXGue2n-53" value="" style="rounded=1;whiteSpace=wrap;html=1;verticalAlign=top;strokeColor=#6c8ebf;arcSize=42;strokeWidth=1;fillColor=#dae8fc;" parent="1" vertex="1">
                    <mxGeometry x="-450" y="387.5" width="50" height="20" as="geometry"/>
                </mxCell>
                <mxCell id="VIp4UG6BL_EoKdXGue2n-54" value="" style="rounded=1;whiteSpace=wrap;html=1;verticalAlign=top;strokeColor=#6c8ebf;arcSize=42;strokeWidth=1;" parent="1" vertex="1">
                    <mxGeometry x="-450" y="417.5" width="50" height="20" as="geometry"/>
                </mxCell>
                <mxCell id="VIp4UG6BL_EoKdXGue2n-55" value="Логический блок" style="text;html=1;strokeColor=none;fillColor=none;align=left;verticalAlign=middle;whiteSpace=wrap;rounded=0;" parent="1" vertex="1">
                    <mxGeometry x="-390" y="320" width="190" height="30" as="geometry"/>
                </mxCell>
                <mxCell id="VIp4UG6BL_EoKdXGue2n-56" value="Сервер развертывания" style="text;html=1;strokeColor=none;fillColor=none;align=left;verticalAlign=middle;whiteSpace=wrap;rounded=0;" parent="1" vertex="1">
                    <mxGeometry x="-389" y="350.5" width="189" height="30" as="geometry"/>
                </mxCell>
                <mxCell id="VIp4UG6BL_EoKdXGue2n-57" value="Компонент DataGrid" style="text;html=1;strokeColor=none;fillColor=none;align=left;verticalAlign=middle;whiteSpace=wrap;rounded=0;" parent="1" vertex="1">
                    <mxGeometry x="-389" y="380.5" width="189" height="30" as="geometry"/>
                </mxCell>
                <mxCell id="VIp4UG6BL_EoKdXGue2n-58" value="Дополнительный компонент" style="text;html=1;strokeColor=none;fillColor=none;align=left;verticalAlign=middle;whiteSpace=wrap;rounded=0;" parent="1" vertex="1">
                    <mxGeometry x="-389" y="410.5" width="189" height="30" as="geometry"/>
                </mxCell>
                <mxCell id="VIp4UG6BL_EoKdXGue2n-59" value="" style="endArrow=classic;html=1;rounded=0;" parent="1" edge="1">
                    <mxGeometry width="50" height="50" relative="1" as="geometry">
                        <mxPoint x="-160" y="334.71" as="sourcePoint"/>
                        <mxPoint x="-120" y="334.71" as="targetPoint"/>
                    </mxGeometry>
                </mxCell>
                <mxCell id="VIp4UG6BL_EoKdXGue2n-60" value="Взаимодействие TCP" style="text;html=1;strokeColor=none;fillColor=none;align=left;verticalAlign=middle;whiteSpace=wrap;rounded=0;" parent="1" vertex="1">
                    <mxGeometry x="-110" y="320" width="190" height="30" as="geometry"/>
                </mxCell>
                <mxCell id="VIp4UG6BL_EoKdXGue2n-61" value="" style="endArrow=classic;html=1;rounded=0;strokeColor=#B20000;fillColor=#e51400;" parent="1" edge="1">
                    <mxGeometry width="50" height="50" relative="1" as="geometry">
                        <mxPoint x="-160" y="366.71" as="sourcePoint"/>
                        <mxPoint x="-120" y="366.71" as="targetPoint"/>
                    </mxGeometry>
                </mxCell>
                <mxCell id="VIp4UG6BL_EoKdXGue2n-62" value="Взаимодействие HTTP(S)" style="text;html=1;strokeColor=none;fillColor=none;align=left;verticalAlign=middle;whiteSpace=wrap;rounded=0;" parent="1" vertex="1">
                    <mxGeometry x="-110" y="352.5" width="190" height="30" as="geometry"/>
                </mxCell>
                <mxCell id="VIp4UG6BL_EoKdXGue2n-63" value="" style="endArrow=classic;html=1;rounded=0;strokeColor=#001DBC;fillColor=#0050ef;" parent="1" edge="1">
                    <mxGeometry width="50" height="50" relative="1" as="geometry">
                        <mxPoint x="-160" y="396.71" as="sourcePoint"/>
                        <mxPoint x="-120" y="396.71" as="targetPoint"/>
                    </mxGeometry>
                </mxCell>
                <mxCell id="VIp4UG6BL_EoKdXGue2n-64" value="Взаимодействие JDBC" style="text;html=1;strokeColor=none;fillColor=none;align=left;verticalAlign=middle;whiteSpace=wrap;rounded=0;" parent="1" vertex="1">
                    <mxGeometry x="-110" y="382.5" width="190" height="30" as="geometry"/>
                </mxCell>
                <mxCell id="VIp4UG6BL_EoKdXGue2n-65" value="&lt;font style=&quot;font-size: 10px;&quot;&gt;rsyslog&lt;/font&gt;" style="rounded=1;whiteSpace=wrap;html=1;arcSize=5;verticalAlign=top;fillColor=none;strokeColor=#6c8ebf;" parent="1" vertex="1">
                    <mxGeometry x="-103" y="169" width="70" height="30" as="geometry"/>
                </mxCell>
                <mxCell id="VIp4UG6BL_EoKdXGue2n-66" value="" style="endArrow=classic;html=1;rounded=0;exitX=0.5;exitY=1;exitDx=0;exitDy=0;entryX=0.559;entryY=-0.027;entryDx=0;entryDy=0;entryPerimeter=0;" parent="1" source="VIp4UG6BL_EoKdXGue2n-16" target="VIp4UG6BL_EoKdXGue2n-65" edge="1">
                    <mxGeometry width="50" height="50" relative="1" as="geometry">
                        <mxPoint x="-130" y="200" as="sourcePoint"/>
                        <mxPoint x="-80" y="150" as="targetPoint"/>
                    </mxGeometry>
                </mxCell>
                <mxCell id="VIp4UG6BL_EoKdXGue2n-67" value="" style="edgeStyle=orthogonalEdgeStyle;rounded=0;orthogonalLoop=1;jettySize=auto;html=1;strokeColor=default;fillColor=#e51400;" parent="1" edge="1">
                    <mxGeometry relative="1" as="geometry">
                        <mxPoint x="-134" y="129.67000000000002" as="sourcePoint"/>
                        <mxPoint x="-250" y="129.67000000000002" as="targetPoint"/>
                    </mxGeometry>
                </mxCell>
                <mxCell id="VIp4UG6BL_EoKdXGue2n-68" value="TLS + TCP" style="edgeLabel;html=1;align=center;verticalAlign=middle;resizable=0;points=[];fontSize=10;" parent="VIp4UG6BL_EoKdXGue2n-67" vertex="1" connectable="0">
                    <mxGeometry x="0.3944" relative="1" as="geometry">
                        <mxPoint x="19" y="-12" as="offset"/>
                    </mxGeometry>
                </mxCell>
                <mxCell id="2" value="" style="rounded=1;whiteSpace=wrap;html=1;fillColor=#f5f5f5;fontColor=#333333;strokeColor=#666666;" parent="1" vertex="1">
                    <mxGeometry x="-450" y="450" width="50" height="20" as="geometry"/>
                </mxCell>
                <mxCell id="3" value="Внешние сервисы" style="text;whiteSpace=wrap;html=1;" parent="1" vertex="1">
                    <mxGeometry x="-390" y="445" width="180" height="20" as="geometry"/>
                </mxCell>
            </root>
        </mxGraphModel>
    </diagram>
</mxfile>